<?xml version="1.0" standalone="no"?>
<!DOCTYPE svg PUBLIC "-//W3C//DTD SVG 20010904//EN"
 "http://www.w3.org/TR/2001/REC-SVG-20010904/DTD/svg10.dtd">
<svg version="1.0" xmlns="http://www.w3.org/2000/svg"
 width="1024.000000pt" height="1024.000000pt" viewBox="0 0 1024.000000 1024.000000"
 preserveAspectRatio="xMidYMid meet">
<metadata>
Created by potrace 1.14, written by Peter Selinger 2001-2017
</metadata>
<g transform="translate(0.000000,1024.000000) scale(0.100000,-0.100000)"
fill="#000000" stroke="none">
<path d="M1390 5885 l0 -1655 415 0 415 0 0 1240 0 1240 2900 0 2900 0 0
-1240 0 -1240 415 0 415 0 0 1655 0 1655 -3730 0 -3730 0 0 -1655z"/>
<path d="M3880 5055 l0 -825 410 0 410 0 0 825 0 825 -410 0 -410 0 0 -825z"/>
<path d="M5540 5055 l0 -825 410 0 410 0 0 825 0 825 -410 0 -410 0 0 -825z"/>
<path d="M2222 3878 l3 -343 413 -3 412 -2 0 -415 0 -415 2070 0 2070 0 0 415
0 415 413 2 412 3 3 343 2 342 -415 0 -415 0 0 -345 0 -345 -2070 0 -2070 0 0
345 0 345 -415 0 -415 0 2 -342z"/>
</g>
</svg>
